<?xml version="1.0" encoding="UTF-8"?>
<svg xmlns="http://www.w3.org/2000/svg" xmlns:xlink="http://www.w3.org/1999/xlink" width="109.6725pt" height="113.725pt" viewBox="0 0 109.6725 113.725" version="1.1">
<defs>
<clipPath id="clip1">
  <path d="M 0 71.25 L 109.671875 71.25 L 109.671875 89 L 0 89 Z M 0 71.25 "/>
</clipPath>
</defs>
<g id="surface1">
<path style=" stroke:none;fill-rule:nonzero;fill:rgb(65.098039%,1.960784%,1.960784%);fill-opacity:1;" d="M 80.191406 20.433594 C 80.074219 20.25 79.832031 20.195312 79.644531 20.304688 C 79.644531 20.304688 79.566406 20.347656 79.433594 20.449219 C 78.542969 21.046875 75.410156 22.976562 72 23.027344 L 71.910156 23.027344 C 69.15625 23.027344 68.082031 21.167969 68.039062 21.089844 C 67.957031 20.9375 67.789062 20.855469 67.617188 20.882812 C 67.449219 20.910156 67.3125 21.039062 67.28125 21.210938 C 67.273438 21.242188 66.617188 24.578125 64.609375 26.597656 C 63.148438 28.066406 62.121094 28.613281 60.804688 28.613281 C 60.117188 28.613281 59.332031 28.464844 58.34375 28.140625 C 58.199219 28.09375 58.039062 28.128906 57.933594 28.238281 C 57.824219 28.34375 57.785156 28.5 57.828125 28.648438 C 58.542969 31.039062 57.292969 33.960938 56.390625 35.636719 C 55.347656 28.105469 59.488281 22.730469 59.535156 22.671875 C 59.636719 22.542969 59.652344 22.367188 59.574219 22.222656 C 59.496094 22.078125 59.335938 22 59.175781 22.011719 C 59.167969 22.011719 58.484375 22.082031 57.503906 22.082031 C 55.648438 22.082031 52.324219 21.832031 50.921875 20.152344 C 48.816406 17.628906 48.535156 12.355469 48.53125 12.304688 C 48.523438 12.132812 48.40625 11.988281 48.242188 11.9375 C 48.078125 11.886719 47.902344 11.945312 47.796875 12.082031 C 47.78125 12.101562 46.1875 14.140625 41.273438 14.351562 C 34.238281 14.648438 31.082031 12.277344 30.304688 11.566406 C 30.175781 11.433594 30.101562 11.363281 30.101562 11.363281 C 29.945312 11.214844 29.695312 11.214844 29.539062 11.363281 C 29.382812 11.511719 29.371094 11.761719 29.511719 11.925781 C 29.511719 11.925781 29.582031 12.007812 29.738281 12.152344 C 30.710938 13.148438 33.917969 16.691406 34.789062 21.050781 C 35.519531 24.699219 33.316406 26.574219 33.222656 26.652344 C 33.089844 26.761719 33.039062 26.941406 33.097656 27.105469 C 33.15625 27.265625 33.308594 27.375 33.480469 27.375 C 33.523438 27.375 37.941406 27.421875 41.019531 29.523438 C 43.933594 31.511719 45.058594 33.023438 44.507812 37.230469 C 44.488281 37.382812 44.554688 37.53125 44.675781 37.617188 C 44.800781 37.703125 44.960938 37.714844 45.097656 37.644531 C 46.136719 37.113281 47.414062 36.84375 48.894531 36.84375 C 49.511719 36.84375 50.125 36.902344 50.726562 36.984375 C 50.160156 37.734375 49.8125 38.65625 49.8125 39.667969 C 49.8125 41.660156 51.125 43.332031 52.921875 43.917969 C 51.921875 45.410156 51.132812 46.710938 50.925781 47.28125 C 50.847656 47.492188 50.957031 47.726562 51.171875 47.804688 C 51.21875 47.820312 51.265625 47.828125 51.308594 47.828125 C 51.476562 47.828125 51.632812 47.726562 51.691406 47.558594 C 51.886719 47.023438 52.730469 45.660156 53.785156 44.105469 C 53.957031 44.125 54.121094 44.15625 54.296875 44.15625 C 55.359375 44.15625 56.320312 43.769531 57.089844 43.152344 C 57.753906 45.953125 57.828125 47.804688 57.828125 47.839844 C 57.835938 48.0625 58.015625 48.238281 58.234375 48.238281 C 58.238281 48.238281 58.242188 48.238281 58.246094 48.238281 C 58.472656 48.230469 58.648438 48.046875 58.644531 47.820312 C 58.640625 47.675781 58.5625 45.582031 57.777344 42.46875 C 57.890625 42.324219 58.003906 42.179688 58.101562 42.023438 C 58.664062 42.34375 59.3125 42.53125 60.007812 42.53125 C 61.933594 42.53125 63.535156 41.140625 63.878906 39.316406 C 65.996094 40.46875 67.195312 41.773438 67.214844 41.796875 C 67.292969 41.886719 67.40625 41.9375 67.523438 41.9375 C 67.566406 41.9375 67.609375 41.929688 67.652344 41.917969 C 67.808594 41.867188 67.917969 41.726562 67.933594 41.5625 C 67.9375 41.515625 68.34375 36.808594 70.464844 35.617188 C 71.671875 34.941406 73.433594 34.796875 74.703125 34.796875 C 75.84375 34.796875 76.710938 34.910156 76.71875 34.914062 C 76.886719 34.9375 77.054688 34.851562 77.132812 34.699219 C 77.214844 34.546875 77.1875 34.363281 77.070312 34.234375 C 77.058594 34.21875 75.761719 32.738281 76.285156 29.023438 C 77.039062 23.675781 79.242188 21.636719 79.910156 21.128906 C 80.03125 21.046875 80.09375 21 80.09375 21 C 80.265625 20.855469 80.308594 20.617188 80.191406 20.433594 Z M 58.769531 29.121094 C 59.539062 29.328125 60.199219 29.429688 60.804688 29.429688 C 62.578125 29.429688 63.839844 28.527344 65.1875 27.171875 C 66.746094 25.605469 67.539062 23.398438 67.875 22.203125 C 68.53125 22.898438 69.808594 23.839844 71.910156 23.839844 L 72.011719 23.839844 C 73.574219 23.816406 75.074219 23.425781 76.351562 22.941406 C 73.324219 25.402344 67.105469 30.398438 61.179688 34.835938 C 60.804688 34.71875 60.414062 34.636719 60 34.636719 C 58.894531 34.636719 57.917969 35.105469 57.210938 35.84375 C 58.082031 34.195312 59.167969 31.550781 58.769531 29.121094 Z M 41.304688 15.160156 C 44.910156 15.007812 46.867188 13.925781 47.785156 13.203125 C 47.960938 14.875 48.53125 18.558594 50.292969 20.671875 C 51.824219 22.507812 55.058594 22.894531 57.5 22.894531 C 57.839844 22.894531 58.144531 22.886719 58.398438 22.875 C 57.296875 24.597656 54.824219 29.289062 55.546875 35.378906 C 55.398438 35.335938 55.25 35.285156 55.089844 35.257812 C 55.003906 35.082031 54.929688 34.910156 54.835938 34.734375 C 51.835938 28.917969 38.367188 18.039062 33.46875 14.199219 C 35.308594 14.828125 37.859375 15.3125 41.304688 15.160156 Z M 45.390625 36.617188 C 45.761719 32.558594 44.386719 30.835938 41.476562 28.84375 C 39.03125 27.175781 35.894531 26.722656 34.378906 26.601562 C 35.117188 25.660156 36.164062 23.746094 35.589844 20.886719 C 35.121094 18.550781 34.023438 16.457031 32.925781 14.816406 C 37.738281 18.601562 51.21875 29.496094 54.117188 35.109375 C 54.132812 35.136719 54.144531 35.164062 54.15625 35.195312 C 53.105469 35.226562 52.152344 35.625 51.402344 36.261719 C 50.589844 36.128906 49.75 36.027344 48.886719 36.027344 C 47.574219 36.023438 46.402344 36.222656 45.390625 36.617188 Z M 54.292969 43.335938 C 52.269531 43.335938 50.621094 41.6875 50.621094 39.664062 C 50.621094 37.640625 52.265625 35.992188 54.292969 35.992188 C 56.316406 35.992188 57.964844 37.636719 57.964844 39.664062 C 57.960938 41.691406 56.316406 43.335938 54.292969 43.335938 Z M 60 41.703125 C 59.4375 41.703125 58.917969 41.542969 58.464844 41.277344 C 58.660156 40.773438 58.777344 40.234375 58.777344 39.664062 C 58.777344 38.492188 58.316406 37.433594 57.578125 36.636719 C 58.144531 35.917969 59.011719 35.449219 60 35.449219 C 61.726562 35.449219 63.128906 36.851562 63.128906 38.578125 C 63.128906 40.300781 61.726562 41.703125 60 41.703125 Z M 75.472656 28.894531 C 75.101562 31.519531 75.574219 33.152344 75.988281 34.011719 C 75.636719 33.988281 75.191406 33.96875 74.695312 33.96875 C 73.328125 33.96875 71.414062 34.128906 70.058594 34.890625 C 68.152344 35.960938 67.449219 39.105469 67.214844 40.636719 C 66.585938 40.058594 65.457031 39.171875 63.925781 38.390625 C 63.863281 37.039062 63.121094 35.875 62.03125 35.214844 C 68.050781 30.695312 74.289062 25.667969 77.148438 23.34375 C 76.464844 24.648438 75.820312 26.445312 75.472656 28.894531 Z M 75.472656 28.894531 "/>
<g clip-path="url(#clip1)" clip-rule="nonzero">
<path style=" stroke:none;fill-rule:nonzero;fill:rgb(65.098039%,1.960784%,1.960784%);fill-opacity:1;" d="M 11.398438 79.117188 L 11.398438 72.074219 L 13.199219 72.074219 L 13.199219 88.273438 L 11.398438 88.273438 L 11.398438 80.578125 L 2.398438 80.578125 L 2.398438 88.273438 L 0.601562 88.273438 L 0.601562 72.074219 L 2.398438 72.074219 L 2.398438 79.117188 Z M 16.640625 74.292969 C 18.039062 72.664062 19.816406 71.851562 21.976562 71.851562 C 24.136719 71.851562 25.914062 72.664062 27.308594 74.292969 C 28.703125 75.917969 29.398438 77.878906 29.398438 80.175781 C 29.398438 82.46875 28.703125 84.429688 27.308594 86.058594 C 25.914062 87.6875 24.136719 88.5 21.976562 88.5 C 19.816406 88.5 18.039062 87.6875 16.640625 86.058594 C 15.246094 84.429688 14.550781 82.46875 14.550781 80.175781 C 14.550781 77.878906 15.246094 75.917969 16.640625 74.292969 M 17.96875 85.011719 C 19.019531 86.363281 20.355469 87.039062 21.976562 87.039062 C 23.59375 87.039062 24.929688 86.363281 25.980469 85.011719 C 27.03125 83.664062 27.554688 82.050781 27.554688 80.175781 C 27.554688 78.300781 27.03125 76.6875 25.980469 75.335938 C 24.929688 73.988281 23.59375 73.3125 21.976562 73.3125 C 20.355469 73.3125 19.019531 73.988281 17.96875 75.335938 C 16.921875 76.6875 16.394531 78.300781 16.394531 80.175781 C 16.394531 82.050781 16.921875 83.664062 17.96875 85.011719 Z M 32.550781 72.074219 L 32.550781 86.8125 L 40.875 86.8125 L 40.875 88.273438 L 30.75 88.273438 L 30.75 72.074219 Z M 43.574219 72.074219 L 43.574219 86.8125 L 51.898438 86.8125 L 51.898438 88.273438 L 41.773438 88.273438 L 41.773438 72.074219 Z M 57.59375 80.015625 L 57.613281 80.015625 C 57.839844 79.417969 58.3125 78.421875 59.03125 77.023438 L 61.574219 72.074219 L 63.554688 72.074219 L 58.515625 81.480469 L 58.515625 88.273438 L 56.714844 88.273438 L 56.714844 81.480469 L 51.675781 72.074219 L 53.65625 72.074219 L 56.199219 77.023438 C 56.902344 78.40625 57.367188 79.402344 57.59375 80.015625 Z M 73.230469 72.074219 L 75.097656 72.074219 L 80.949219 88.273438 L 79.078125 88.273438 L 77.503906 83.773438 L 70.84375 83.773438 L 69.246094 88.273438 L 67.378906 88.273438 L 73.230469 72.074219 M 72.375 79.183594 L 71.273438 82.3125 L 77.078125 82.3125 L 75.976562 79.183594 C 75.226562 77.054688 74.625 75.277344 74.175781 73.851562 L 74.152344 73.851562 C 73.71875 75.277344 73.125 77.054688 72.375 79.183594 Z M 81.847656 72.074219 L 83.691406 72.074219 L 89.09375 80.175781 L 90.511719 82.425781 C 91.875 84.613281 92.625 85.828125 92.761719 86.070312 L 92.78125 86.070312 C 92.691406 84.839844 92.648438 83.625 92.648438 82.425781 L 92.648438 72.074219 L 94.449219 72.074219 L 94.449219 88.273438 L 92.601562 88.273438 L 87.203125 80.175781 L 85.785156 77.925781 C 84.421875 75.734375 83.671875 74.519531 83.535156 74.28125 L 83.511719 74.28125 C 83.601562 75.511719 83.648438 76.726562 83.648438 77.925781 L 83.648438 88.273438 L 81.847656 88.273438 Z M 96.472656 88.273438 L 96.472656 72.074219 C 97.550781 71.925781 98.863281 71.851562 100.410156 71.851562 C 101.25 71.851562 102.066406 71.9375 102.863281 72.109375 C 103.65625 72.28125 104.4375 72.578125 105.203125 72.996094 C 105.96875 73.417969 106.632812 73.9375 107.195312 74.5625 C 107.757812 75.183594 108.210938 75.976562 108.554688 76.933594 C 108.898438 77.894531 109.074219 78.976562 109.074219 80.175781 C 109.074219 81.375 108.898438 82.453125 108.554688 83.414062 C 108.210938 84.375 107.757812 85.167969 107.195312 85.789062 C 106.632812 86.410156 105.96875 86.933594 105.203125 87.351562 C 104.4375 87.773438 103.65625 88.070312 102.863281 88.242188 C 102.066406 88.414062 101.25 88.5 100.410156 88.5 C 99.71875 88.5 99.046875 88.480469 98.394531 88.445312 C 97.742188 88.40625 97.261719 88.363281 96.945312 88.320312 L 96.472656 88.273438 M 100.410156 73.3125 L 98.273438 73.425781 L 98.273438 86.925781 C 99.097656 87 99.808594 87.039062 100.410156 87.039062 C 101.21875 87.039062 102.007812 86.917969 102.773438 86.675781 C 103.539062 86.4375 104.261719 86.066406 104.945312 85.5625 C 105.625 85.0625 106.175781 84.34375 106.597656 83.414062 C 107.015625 82.484375 107.226562 81.40625 107.226562 80.175781 C 107.226562 78.945312 107.015625 77.863281 106.597656 76.933594 C 106.175781 76.003906 105.625 75.289062 104.945312 74.785156 C 104.261719 74.285156 103.539062 73.914062 102.773438 73.671875 C 102.007812 73.433594 101.21875 73.3125 100.410156 73.3125 Z M 100.410156 73.3125 "/>
</g>
<path style=" stroke:none;fill-rule:nonzero;fill:rgb(65.098039%,1.960784%,1.960784%);fill-opacity:1;" d="M 43.347656 99.457031 C 43.476562 99.066406 43.539062 98.667969 43.539062 98.265625 C 43.539062 97.859375 43.476562 97.460938 43.347656 97.070312 C 43.222656 96.679688 43.019531 96.300781 42.742188 95.925781 C 42.464844 95.550781 42.046875 95.246094 41.492188 95.011719 C 40.9375 94.78125 40.285156 94.664062 39.535156 94.664062 L 37.058594 94.777344 L 37.058594 101.75 C 38.140625 101.828125 38.964844 101.863281 39.535156 101.863281 C 40.285156 101.863281 40.9375 101.746094 41.492188 101.515625 C 42.046875 101.28125 42.464844 100.980469 42.742188 100.605469 C 43.019531 100.230469 43.222656 99.847656 43.347656 99.457031 M 43.890625 94.699219 C 44.886719 95.695312 45.386719 96.882812 45.386719 98.265625 C 45.386719 99.644531 44.886719 100.832031 43.890625 101.832031 C 42.890625 102.828125 41.441406 103.328125 39.535156 103.328125 L 37.058594 103.214844 L 37.058594 109.625 L 35.261719 109.625 L 35.261719 93.425781 C 36.851562 93.277344 38.273438 93.203125 39.535156 93.203125 C 41.441406 93.203125 42.890625 93.699219 43.890625 94.699219 Z M 48.308594 93.425781 L 48.308594 109.625 L 46.511719 109.625 L 46.511719 93.425781 Z M 50.335938 93.425781 L 52.179688 93.425781 L 57.582031 101.527344 L 58.996094 103.777344 C 60.363281 105.964844 61.113281 107.179688 61.246094 107.421875 L 61.269531 107.421875 C 61.179688 106.191406 61.136719 104.976562 61.136719 103.777344 L 61.136719 93.425781 L 62.933594 93.425781 L 62.933594 109.625 L 61.089844 109.625 L 55.691406 101.527344 L 54.273438 99.277344 C 52.90625 97.085938 52.15625 95.871094 52.023438 95.632812 L 52 95.632812 C 52.089844 96.863281 52.136719 98.078125 52.136719 99.277344 L 52.136719 109.625 L 50.335938 109.625 Z M 66.761719 101.820312 L 66.761719 108.164062 L 74.410156 108.164062 L 74.410156 109.625 L 64.960938 109.625 L 64.960938 93.425781 L 74.183594 93.425781 L 74.183594 94.890625 L 66.761719 94.890625 L 66.761719 100.355469 L 73.734375 100.355469 L 73.734375 101.820312 Z M 66.761719 101.820312 "/>
</g>
</svg>
